<svg width="24" height="24" viewBox="0 0 24 24" fill="none" xmlns="http://www.w3.org/2000/svg">
<path opacity="0.974" fill-rule="evenodd" clip-rule="evenodd" d="M11.9297 2.92969C12.4366 2.95095 12.921 3.06814 13.3828 3.28125C15.4665 4.2059 17.5446 5.14341 19.6172 6.09375C19.8084 6.2205 19.9803 6.36895 20.1328 6.53906C19.0148 7.05895 17.8898 7.56675 16.7578 8.0625C16.664 8.09377 16.5703 8.09377 16.4765 8.0625C13.8089 6.8107 11.1448 5.55291 8.48435 4.28906C8.45664 4.24296 8.4723 4.21171 8.53122 4.19531C9.3175 3.83731 10.1066 3.48575 10.8984 3.14062C11.2398 3.02441 11.5835 2.9541 11.9297 2.92969Z" fill="white"/>
<path opacity="0.969" fill-rule="evenodd" clip-rule="evenodd" d="M6.58591 5.03906C9.35275 6.28964 12.1028 7.5787 14.8359 8.90625C14.1383 9.23161 13.4352 9.54413 12.7265 9.84375C12.2928 9.97519 11.8554 9.9908 11.414 9.89062C8.89296 8.82155 6.38514 7.71998 3.8906 6.58594C3.83165 6.56953 3.81603 6.53827 3.84372 6.49219C4.00349 6.35377 4.16755 6.22092 4.33591 6.09375C5.08872 5.73666 5.83872 5.38509 6.58591 5.03906Z" fill="white"/>
<path opacity="0.993" fill-rule="evenodd" clip-rule="evenodd" d="M3.07031 7.85156C5.5432 8.92345 8.01192 10.0094 10.4766 11.1094C10.7209 11.2039 10.9709 11.2742 11.2266 11.3203C11.2344 14.5235 11.2266 17.7266 11.2031 20.9297C8.90649 19.926 6.61739 18.9025 4.33594 17.8594C3.61027 17.3672 3.16495 16.6875 3 15.8203C2.96875 13.2578 2.96875 10.6953 3 8.13281C3.01478 8.03503 3.03822 7.94128 3.07031 7.85156Z" fill="white"/>
<path opacity="0.991" fill-rule="evenodd" clip-rule="evenodd" d="M20.7422 7.85151C20.8042 7.84354 20.8589 7.85915 20.9063 7.89838C20.9219 7.97652 20.9375 8.05462 20.9531 8.13276C20.9844 10.6953 20.9844 13.2577 20.9531 15.8203C20.7882 16.6875 20.3429 17.3672 19.6172 17.8593C17.3357 18.9024 15.0466 19.9259 12.75 20.9296C12.7266 17.7265 12.7187 14.5234 12.7266 11.3203C12.9822 11.2742 13.2322 11.2039 13.4766 11.1093C14.2559 10.7532 15.0371 10.4016 15.8203 10.0546C15.8461 10.7448 15.8851 11.4322 15.9375 12.1171C16.2193 12.6183 16.6021 12.712 17.0859 12.3984C17.1854 12.3069 17.2557 12.1975 17.2969 12.0703C17.3125 11.1796 17.3281 10.289 17.3438 9.39838C18.4829 8.88726 19.6157 8.37163 20.7422 7.85151Z" fill="white"/>
</svg>
